<svg width="210" height="151" viewBox="0 0 210 151" fill="none" xmlns="http://www.w3.org/2000/svg">
    <path d="M201.072 0.0349998H8.928C4.00472 0.0349998 0 4.23127 0 9.38879V33.8558V72.3559V140.681C0 145.839 4.00472 150.035 8.928 150.035H201.072C205.995 150.035 210 145.839 210 140.681V72.3559V33.8558V9.38879C209.999 4.23127 205.995 0.0349998 201.072 0.0349998ZM33.7216 122.366H24.7745V92.9904H33.7216V122.366ZM51.6157 122.366H42.6686V92.9904H51.6157V122.366ZM69.5099 122.366H60.5628V92.9904H69.5099V122.366ZM166.283 126.887C162.99 126.887 159.825 125.855 157.148 123.941C154.47 125.854 151.305 126.887 148.012 126.887C139.053 126.887 131.765 119.249 131.765 109.861C131.765 100.473 139.053 92.8354 148.012 92.8354C151.305 92.8354 154.47 93.8673 157.148 95.7817C159.825 93.8673 162.99 92.8354 166.283 92.8354C175.242 92.8354 182.532 100.473 182.532 109.861C182.532 119.249 175.243 126.887 166.283 126.887ZM204.035 66.1065H5.96472V40.1064H204.035V66.1065Z" fill="black"/>
    </svg>
    