<svg width="99" height="70" viewBox="0 0 99 70" fill="none" xmlns="http://www.w3.org/2000/svg">
    <path d="M80.4215 69.1332V69.2963H80.5752C80.604 69.2967 80.6325 69.2895 80.6576 69.2755C80.6676 69.2685 80.6757 69.2591 80.6811 69.2482C80.6865 69.2373 80.689 69.2252 80.6885 69.2131C80.689 69.2012 80.6865 69.1894 80.6811 69.1787C80.6756 69.1681 80.6676 69.159 80.6576 69.1523C80.6328 69.1376 80.6041 69.1303 80.5752 69.1315H80.4215V69.1332ZM80.5768 69.0178C80.6427 69.0138 80.708 69.0325 80.7614 69.0708C80.7829 69.0882 80.7999 69.1103 80.8111 69.1354C80.8224 69.1604 80.8275 69.1877 80.8261 69.2151C80.8271 69.2387 80.823 69.2622 80.814 69.2841C80.8051 69.306 80.7915 69.3257 80.7742 69.3419C80.733 69.3774 80.6812 69.3987 80.6267 69.4027L80.8327 69.6351H80.6741L80.4846 69.4043H80.4232V69.6351H80.2905V69.0182H80.5789L80.5768 69.0178ZM80.5356 69.8479C80.6052 69.8486 80.6742 69.8347 80.7379 69.8071C80.7994 69.7809 80.8554 69.7434 80.9028 69.6966C80.9502 69.6499 80.9882 69.5945 81.0144 69.5336C81.0685 69.4043 81.0685 69.2591 81.0144 69.1299C80.9878 69.0692 80.9499 69.0139 80.9028 68.9668C80.8554 68.9201 80.7994 68.8826 80.7379 68.8563C80.6738 68.8303 80.605 68.8173 80.5356 68.818C80.4651 68.8174 80.3951 68.8304 80.3296 68.8563C80.2668 68.882 80.2095 68.9196 80.1611 68.9668C80.0882 69.0408 80.0389 69.1344 80.0194 69.2359C79.9998 69.3374 80.0108 69.4423 80.0511 69.5376C80.0762 69.5988 80.1136 69.6543 80.1611 69.7007C80.2095 69.7479 80.2668 69.7855 80.3296 69.8112C80.3947 69.8387 80.4649 69.8526 80.5356 69.852V69.8479ZM80.5356 68.6696C80.7167 68.6694 80.8906 68.7397 81.0198 68.8653C81.0821 68.9256 81.1316 68.9975 81.1656 69.0769C81.2009 69.1584 81.219 69.2461 81.219 69.3348C81.219 69.4234 81.2009 69.5112 81.1656 69.5927C81.1308 69.6716 81.0814 69.7434 81.0198 69.8043C80.9566 69.8643 80.883 69.9126 80.8026 69.947C80.7182 69.9825 80.6274 70.0005 80.5356 70C80.4428 70.0006 80.3509 69.9826 80.2653 69.947C80.184 69.9134 80.1098 69.865 80.0465 69.8043C79.985 69.7412 79.9362 69.667 79.9027 69.5857C79.8675 69.5042 79.8494 69.4165 79.8494 69.3279C79.8494 69.2392 79.8675 69.1515 79.9027 69.07C79.9368 68.9906 79.9863 68.9187 80.0486 68.8584C80.111 68.7966 80.1854 68.7481 80.2674 68.7157C80.3529 68.6801 80.4449 68.662 80.5377 68.6627L80.5356 68.6696ZM17.4443 66.2873C17.4443 65.1111 18.2231 64.1448 19.4959 64.1448C20.7122 64.1448 21.533 65.0695 21.533 66.2873C21.533 67.5052 20.7122 68.4299 19.4959 68.4299C18.2231 68.4299 17.4443 67.4636 17.4443 66.2873ZM22.9195 66.2873V62.94H21.4489V63.7554C20.9825 63.1528 20.275 62.7749 19.3129 62.7749C17.4176 62.7749 15.9301 64.2459 15.9301 66.289C15.9301 68.332 17.4167 69.8031 19.3129 69.8031C20.2746 69.8031 20.9825 69.4247 21.4489 68.8225V69.6351H22.9179V66.2873H22.9195ZM72.608 66.2873C72.608 65.1111 73.3868 64.1448 74.66 64.1448C75.8775 64.1448 76.6971 65.0695 76.6971 66.2873C76.6971 67.5052 75.8775 68.4299 74.66 68.4299C73.3872 68.4299 72.608 67.4636 72.608 66.2873ZM78.0848 66.2873V60.2532H76.613V63.7554C76.1466 63.1528 75.4391 62.7749 74.477 62.7749C72.5816 62.7749 71.0942 64.2459 71.0942 66.289C71.0942 68.332 72.5808 69.8031 74.477 69.8031C75.4391 69.8031 76.1466 69.4247 76.613 68.8225V69.6351H78.0848V66.2873ZM41.1711 64.0759C42.1188 64.0759 42.7274 64.6638 42.8828 65.699H39.3738C39.5308 64.7327 40.1237 64.0759 41.1716 64.0759H41.1711ZM41.2008 62.7712C39.2189 62.7712 37.8324 64.1982 37.8324 66.2853C37.8324 68.4132 39.2745 69.7994 41.2993 69.7994C42.3178 69.7994 43.2507 69.5478 44.0715 68.8616L43.3508 67.7832C42.7839 68.2317 42.062 68.4833 41.3833 68.4833C40.4357 68.4833 39.5728 68.0491 39.3606 66.8443H44.3822C44.3966 66.6632 44.4114 66.4806 44.4114 66.2849C44.3966 64.1986 43.0929 62.7708 41.2 62.7708L41.2008 62.7712ZM58.9547 66.2849C58.9547 65.1086 59.7335 64.1424 61.0063 64.1424C62.2226 64.1424 63.0434 65.067 63.0434 66.2849C63.0434 67.5027 62.2226 68.4274 61.0063 68.4274C59.7335 68.4274 58.9543 67.4611 58.9543 66.2849H58.9547ZM64.4295 66.2849V62.94H62.9597V63.7554C62.4917 63.1528 61.7858 62.7749 60.8237 62.7749C58.9283 62.7749 57.4409 64.2459 57.4409 66.289C57.4409 68.332 58.9275 69.8031 60.8237 69.8031C61.7858 69.8031 62.4917 69.4247 62.9597 68.8225V69.6351H64.4299V66.2873L64.4295 66.2849ZM50.6501 66.2849C50.6501 68.3149 52.0782 69.799 54.2579 69.799C55.2765 69.799 55.9551 69.5747 56.6889 69.0011L55.9827 67.8248C55.4306 68.2175 54.8508 68.4274 54.2109 68.4274C53.037 68.4132 52.1738 67.5733 52.1738 66.2849C52.1738 64.9965 53.037 64.157 54.2109 64.1424C54.8492 64.1424 55.4289 64.3523 55.9827 64.745L56.6889 63.5687C55.9538 62.995 55.2752 62.7708 54.2579 62.7708C52.0782 62.7708 50.6501 64.2545 50.6501 66.2849ZM69.608 62.7708C68.7596 62.7708 68.207 63.1634 67.8251 63.7514V62.94H66.3677V69.6314H67.8399V65.8804C67.8399 64.7731 68.3208 64.1578 69.282 64.1578C69.5968 64.1533 69.9094 64.2106 70.2017 64.3262L70.655 62.9547C70.3295 62.8279 69.9051 62.772 69.6071 62.772L69.608 62.7708ZM30.1899 63.4721C29.4824 63.0105 28.5076 62.772 27.4321 62.772C25.7189 62.772 24.6159 63.5846 24.6159 64.9142C24.6159 66.0052 25.4371 66.6783 26.9492 66.8883L27.6439 66.9862C28.4503 67.0983 28.831 67.3083 28.831 67.6862C28.831 68.2036 28.2954 68.4988 27.2896 68.4988C26.271 68.4988 25.5359 68.1767 25.0403 67.7987L24.3493 68.9334C25.1556 69.5213 26.1742 69.8018 27.2772 69.8018C29.2303 69.8018 30.3621 68.8918 30.3621 67.6177C30.3621 66.4415 29.4713 65.8262 27.9995 65.6162L27.3065 65.5168C26.6699 65.4352 26.1598 65.3084 26.1598 64.8599C26.1598 64.3707 26.6406 64.0763 27.4474 64.0763C28.3106 64.0763 29.1462 64.3984 29.5558 64.65L30.1924 63.4737L30.1899 63.4721ZM49.1647 62.7732C48.3163 62.7732 47.7638 63.1659 47.3834 63.7538V62.94H45.9261V69.6314H47.3966V65.8804C47.3966 64.7731 47.8775 64.1578 48.8388 64.1578C49.1536 64.1533 49.4661 64.2106 49.7584 64.3262L50.2117 62.9547C49.8862 62.8279 49.4618 62.772 49.1639 62.772L49.1647 62.7732ZM36.6157 62.94H34.211V60.91H32.7244V62.94H31.3527V64.27H32.7244V67.3225C32.7244 68.8751 33.3334 69.7998 35.073 69.7998C35.7112 69.7998 36.4463 69.6041 36.9127 69.2824L36.4879 68.0364C36.0491 68.288 35.5683 68.4148 35.1859 68.4148C34.4508 68.4148 34.211 67.9663 34.211 67.2948V64.2712H36.6157V62.94ZM14.6297 69.633V65.4336C14.6297 63.8521 13.6111 62.7879 11.9692 62.7737C11.1059 62.7594 10.2155 63.0252 9.59212 63.9642C9.12569 63.2221 8.39062 62.7737 7.35722 62.7737C6.63492 62.7737 5.9291 62.9836 5.37656 63.7673V62.94H3.90475V69.6314H5.38809V65.9212C5.38809 64.7596 6.03911 64.1424 7.04449 64.1424C8.02102 64.1424 8.51505 64.7723 8.51505 65.9065V69.6306H10.0017V65.9204C10.0017 64.7588 10.6803 64.1415 11.6564 64.1415C12.6606 64.1415 13.1398 64.7715 13.1398 65.9057V69.6298L14.6297 69.633Z" fill="#231F20" />
    <path d="M97.3738 46V45H97.005L96.5784 45.6863L96.1541 45H95.7841V46H96.0461V45.2467L96.445 45.8967H96.7164L97.1154 45.245V46H97.375H97.3738ZM95.0341 46V45.1713H95.5062V45.0025H94.3V45.1713H94.7721V46H95.0317H95.0341Z" fill="#F79410" />
    <path d="M62.5245 51H35.875V6H62.525L62.5245 51Z" fill="#FF5F00" />
    <path d="M37.5854 29C37.5854 19.7502 42.1272 11.5105 49.1995 6.20047C43.8461 2.17512 37.2248 -0.00957426 30.4073 3.15416e-05C13.6134 3.15416e-05 0 12.9836 0 29C0 45.0164 13.6134 58 30.4073 58C37.2249 58.0097 43.8465 55.825 49.2 51.7995C42.1281 46.4904 37.5854 38.2502 37.5854 29Z" fill="#EB001B" />
    <path d="M98.4 29C98.4 45.0164 84.7873 58 67.9942 58C61.1762 58.0095 54.5543 55.8249 49.2 51.7995C56.274 46.4895 60.8155 38.2502 60.8155 29C60.8155 19.7498 56.274 11.5105 49.2 6.20047C54.5542 2.17524 61.1759 -0.00940589 67.9938 3.04414e-05C84.7868 3.04414e-05 98.3995 12.9836 98.3995 29" fill="#F79E1B" />
</svg>
