<svg width="250" height="71" viewBox="0 0 250 71" fill="none" xmlns="http://www.w3.org/2000/svg">
<g clip-path="url(#clip0_2_2)">
<path d="M67.3687 0.0154509V0.0460301C67.3378 0.0460301 57.6004 0.0154495 55.0037 9.219C52.6234 17.6581 45.9154 40.9473 45.7299 41.5894H43.8752C43.8752 41.5894 37.0126 17.7804 34.6014 9.18842C32.0048 -0.0151297 22.2364 0.0154509 22.2364 0.0154509H-7.62939e-06V70.0154H22.2467V28.4412H24.1015L37.0847 70.0151H52.5307L65.514 28.4717H67.3687V70.0151H89.6155V0.0154509H67.3687ZM148.638 0.0154509C148.638 0.0154509 142.115 0.596401 139.055 7.35415L123.3 41.5894H121.445V0.0154509H99.1983V70.0154H120.209C120.209 70.0154 127.04 69.4039 130.101 62.6771L145.547 28.4415H147.402V70.0154H169.648V0.0154509H148.638ZM179.54 31.8049V70.0154H201.787V47.7047H225.889C236.399 47.7047 245.291 41.0696 248.599 31.8151H179.54V31.8049Z" fill="#4DB45E"/>
<path d="M225.898 0.0154495H176.418C178.891 13.4933 188.999 24.3024 202.065 27.8264C205.098 28.648 208.227 29.0639 211.369 29.0633H249.505C249.845 27.4558 250 25.8174 250 24.1173C250 10.8039 239.211 0.0154495 225.898 0.0154495Z" fill="url(#paint0_linear_2_2)"/>
</g>
<defs>
<linearGradient id="paint0_linear_2_2" x1="176.418" y1="14.5393" x2="250" y2="14.5393" gradientUnits="userSpaceOnUse">
<stop offset="0.3" stop-color="#00B4E6"/>
<stop offset="1" stop-color="#088CCB"/>
</linearGradient>
<clipPath id="clip0_2_2">
<rect width="250" height="70.8" fill="white"/>
</clipPath>
</defs>
</svg>
