<svg width="211" height="74" viewBox="0 0 211 74" fill="none" xmlns="http://www.w3.org/2000/svg">
    <path d="M91.2091 68.8332H74.0411L84.7709 1.20836H101.941L91.2091 68.8332ZM59.5984 1.20836L43.2312 47.7213L41.2945 37.7052L41.2962 37.7089L35.5195 7.29721C35.5195 7.29721 34.821 1.20836 27.3756 1.20836H0.317501L0 2.35341C0 2.35341 8.27442 4.11892 17.9582 10.0829L32.8737 68.835H50.7613L78.0751 1.20836H59.5984ZM194.633 68.8332H210.397L196.653 1.20655H182.852C176.479 1.20655 174.927 6.24622 174.927 6.24622L149.322 68.8332H167.219L170.798 58.7883H192.622L194.633 68.8332ZM175.742 44.912L184.762 19.6051L189.837 44.912H175.742ZM150.665 17.4706L153.115 2.94854C153.115 2.94854 145.555 0 137.674 0C129.154 0 108.922 3.81864 108.922 22.3873C108.922 39.8579 132.668 40.0749 132.668 49.2516C132.668 58.4283 111.369 56.784 104.339 50.9972L101.787 66.1814C101.787 66.1814 109.453 70 121.165 70C132.881 70 150.555 63.7791 150.555 46.8476C150.555 29.2648 126.596 27.6277 126.596 19.9832C126.598 12.3369 143.318 13.3191 150.665 17.4706Z" fill="#2566AF" />
</svg>
